<svg xmlns="http://www.w3.org/2000/svg" viewBox="0 0 102 93" width="102" height="93">
	<style>
		tspan { white-space:pre }
	</style>
	<path id="Si " fill="#9e2a2b" d="M26.14 93.17Q20.4 93.17 15.77 91.7Q11.14 90.18 7.8 87.37Q4.4 84.55 2.59 80.69Q0.83 76.82 0.83 72.13Q0.83 68.21 2.06 64.75Q3.35 61.23 5.63 58.66Q7.92 56.08 10.96 54.67Q14.01 53.21 17.41 53.21Q21.63 53.21 24.5 55.32Q27.37 57.43 28.07 61.12Q21.8 61.12 18.11 64.46Q16.36 66.04 15.36 68.32Q14.42 70.61 14.42 73.36Q14.42 78.64 17.47 81.74Q20.57 84.79 25.79 84.79Q28.89 84.79 31.59 83.68Q34.29 82.5 36.28 80.51Q38.27 78.52 39.32 75.77Q40.44 72.95 40.44 69.79Q40.44 63.93 36.45 57.6Q34.87 55.14 32.94 52.8Q31.06 50.39 27.66 46.47Q24.62 42.95 22.57 40.38Q20.52 37.8 18.88 35.1Q14.89 28.6 14.89 22.33Q14.89 17.64 16.88 13.66Q18.88 9.61 22.57 6.63Q26.26 3.64 31.18 2Q36.1 0.36 41.79 0.36Q51.45 0.36 57.31 4.93Q60.13 7.15 61.59 10.26Q63.11 13.36 63.11 17.17Q63.11 22.15 60.59 25.32Q59.42 26.84 57.66 27.66Q55.96 28.48 54.03 28.48Q49.52 28.48 46.71 24.73Q48.99 23.09 50.28 20.39Q51.63 17.64 51.63 14.54Q51.63 10.67 49.34 8.44Q47.06 6.16 43.07 6.16Q40.67 6.16 38.62 7.04Q36.63 7.91 35.22 9.55Q33.76 11.2 32.94 13.42Q32.18 15.65 32.18 18.29Q32.18 22.04 33.93 25.49Q35.69 28.95 38.97 32.7Q41.9 36.16 45.3 39.55Q53.21 47.76 56.49 55.55Q58.43 60.18 58.43 65.75Q58.43 71.61 56.02 76.64Q53.62 81.63 49.17 85.32Q44.71 89.07 38.8 91.12Q32.88 93.17 26.14 93.17ZM85.2 24.5Q83.27 24.5 81.51 23.79Q79.75 23.03 78.46 21.74Q77.18 20.51 76.41 18.75Q75.71 17 75.71 15.06Q75.71 13.13 76.41 11.37Q77.18 9.61 78.46 8.27Q79.75 6.92 81.51 6.21Q83.27 5.45 85.2 5.45Q87.14 5.45 88.89 6.21Q90.65 6.92 92 8.27Q93.35 9.61 94.05 11.37Q94.81 13.13 94.81 15.06Q94.81 17 94.05 18.75Q93.35 20.51 92 21.74Q90.65 23.03 88.89 23.79Q87.14 24.5 85.2 24.5ZM77.06 91.7Q71.32 91.7 67.98 88.3Q64.23 84.55 64.23 77.35Q64.23 73.95 65.16 69.5L73.31 31L90.59 31L81.98 71.78Q81.51 73.3 81.51 75.65Q81.51 78.11 82.63 79.11Q83.8 80.1 86.38 80.1Q88.13 80.1 89.77 79.34Q91.47 78.52 92.88 77.11Q95.75 74.24 97.21 69.5L102.25 69.5Q99.03 78.58 94.17 83.97Q90.07 88.36 84.91 90.3Q81.16 91.7 77.06 91.7Z" />
</svg>
